<svg xmlns="http://www.w3.org/2000/svg" width="484.091" height="381.953" viewBox="0 0 484.091 381.953"><path d="M187.763,158.848,241.91,278.932l80.59-46.457.061-.024V139.464Z" fill="#2bbdf7" fill-rule="evenodd"/><path d="M426.827,69.745,376.525,50.8l-53.759-4.343V335.423l80.65,46.482,63.657-130.274L426.924,125.663Z" fill="#2891f9" fill-rule="evenodd"/><path d="M421.773,46.553l-18.68,46.469h-.024V381.953l80.663-46.469V46.553Z" fill="#2bbdf7" fill-rule="evenodd"/><path d="M403.428,0,322.766,46.506,403.428,93l80.663-46.493Z" fill="#2b6def" fill-rule="evenodd"/><path d="M241.965,185.924V185.9L161.314,95.654,0,46.456V335.387L80.639,381.88l23.046-159.894,57.629,10.468V232.4l80.663,46.481V185.924Z" fill="#2891f9" fill-rule="evenodd"/><path d="M80.687,0,0,46.493,241.94,186.01l36.56-21.069,44.091-25.436Z" fill="#2b6def" fill-rule="evenodd"/><path d="M80.7,185.92h-.012V381.864l80.663-46.481V232.413Z" fill="#2bbdf7" fill-rule="evenodd"/></svg>