<svg xmlns="http://www.w3.org/2000/svg" xmlns:xlink="http://www.w3.org/1999/xlink" width="273" height="84" viewBox="0 0 273 84"><defs><filter id="a" x="0" y="0" width="84" height="84" filterUnits="userSpaceOnUse"><feOffset dy="3" input="SourceAlpha"/><feGaussianBlur stdDeviation="1" result="b"/><feFlood flood-opacity="0.078"/><feComposite operator="in" in2="b"/><feComposite in="SourceGraphic"/></filter><filter id="c" x="98" y="0" width="84" height="84" filterUnits="userSpaceOnUse"><feOffset dy="3" input="SourceAlpha"/><feGaussianBlur stdDeviation="1" result="d"/><feFlood flood-opacity="0.078"/><feComposite operator="in" in2="d"/><feComposite in="SourceGraphic"/></filter><filter id="e" x="189" y="0" width="84" height="84" filterUnits="userSpaceOnUse"><feOffset dy="3" input="SourceAlpha"/><feGaussianBlur stdDeviation="1" result="f"/><feFlood flood-opacity="0.078"/><feComposite operator="in" in2="f"/><feComposite in="SourceGraphic"/></filter></defs><g transform="translate(-237 -1046)"><g transform="translate(240 1046)"><g transform="matrix(1, 0, 0, 1, -3, 0)" filter="url(#a)"><rect width="78" height="78" rx="39" transform="translate(3)" fill="#fff"/></g></g><g transform="translate(126.555 1056.719)"><circle cx="25.698" cy="25.698" r="25.698" transform="translate(126.445 2.281)" fill="#2daae1"/><path d="M265.07,146.492a13.5,13.5,0,0,1-3.883,1.065,6.78,6.78,0,0,0,2.973-3.74,13.506,13.506,0,0,1-4.294,1.641,6.763,6.763,0,0,0-11.694,4.626,6.837,6.837,0,0,0,.174,1.541,19.2,19.2,0,0,1-13.934-7.063,6.767,6.767,0,0,0,2.092,9.025,6.73,6.73,0,0,1-3.063-.845v.085a6.764,6.764,0,0,0,5.423,6.628,6.725,6.725,0,0,1-1.781.237,6.862,6.862,0,0,1-1.274-.119,6.769,6.769,0,0,0,6.315,4.7,13.613,13.613,0,0,1-10.009,2.8,19.132,19.132,0,0,0,10.363,3.039c12.434,0,19.235-10.3,19.235-19.235q0-.44-.021-.874a13.774,13.774,0,0,0,3.378-3.5Z" transform="translate(-96.45 -128.735)" fill="#fff"/></g><g transform="translate(338 1046)"><g transform="matrix(1, 0, 0, 1, -101, 0)" filter="url(#c)"><rect width="78" height="78" rx="39" transform="translate(101)" fill="#fff"/></g></g><g transform="translate(384.754 1026.761)"><path d="M3.438,52.833a22.012,22.012,0,0,0-.3-3.594H-14.754V56.38H-4.51a8.82,8.82,0,0,1-3.8,5.668V66.8H-2.2C1.38,63.489,3.438,58.612,3.438,52.833Z" transform="translate(6.999 5.833)" fill="#4285f4"/><path d="M-8.507,68.9A18.1,18.1,0,0,0,4.048,64.3l-6.111-4.75a11.462,11.462,0,0,1-6.444,1.837,11.347,11.347,0,0,1-10.655-7.853h-6.3v4.892A18.971,18.971,0,0,0-8.507,68.9Z" transform="translate(0.752 8.335)" fill="#34a853"/><path d="M-18.41,58a11.025,11.025,0,0,1-.6-3.626,11.454,11.454,0,0,1,.6-3.626V45.859h-6.3a18.779,18.779,0,0,0-2.042,8.518,18.779,18.779,0,0,0,2.04,8.523Z" transform="translate(0 3.861)" fill="#fbbc05"/><path d="M-8.507,46.76a10.308,10.308,0,0,1,7.283,2.85l5.415-5.415a18.165,18.165,0,0,0-12.7-4.956A18.971,18.971,0,0,0-25.464,49.72l6.3,4.892A11.347,11.347,0,0,1-8.507,46.76Z" transform="translate(0.752)" fill="#ea4335"/></g><g transform="translate(429 1046)"><g transform="matrix(1, 0, 0, 1, -192, 0)" filter="url(#e)"><rect width="78" height="78" rx="39" transform="translate(192)" fill="#fff"/></g></g><g transform="translate(297 996)"><path d="M193.1,91.548a21.548,21.548,0,1,0-24.915,21.288V97.778h-5.473v-6.23h5.473V86.8c0-5.4,3.218-8.385,8.139-8.385a33.126,33.126,0,0,1,4.824.421v5.3H178.43c-2.676,0-3.512,1.661-3.512,3.367v4.042h5.976l-.955,6.23h-5.021v15.057A21.551,21.551,0,0,0,193.1,91.548Z" fill="#1977f3" fill-rule="evenodd"/><path d="M243.929,140.149l.955-6.23h-5.976v-4.042c0-1.7.833-3.367,3.512-3.367h2.718v-5.3a33.125,33.125,0,0,0-4.824-.421c-4.921,0-8.139,2.982-8.139,8.385v4.748H226.7v6.23h5.473v15.057a21.658,21.658,0,0,0,3.367.26,22.036,22.036,0,0,0,3.367-.26v-15.06h5.021Z" transform="translate(-63.993 -42.371)" fill="#fefefe" fill-rule="evenodd"/></g></g></svg>