<svg xmlns="http://www.w3.org/2000/svg" width="256" height="237.4" viewBox="0 0 256 237.4"><g transform="translate(-31.3 -35)"><path d="M274.1,35.5l-99.5,73.9L193,65.8Z" fill="#e2761b" stroke="#e2761b" stroke-linecap="round" stroke-linejoin="round" stroke-width="1"/><path d="M44.4,35.5l98.7,74.6L125.6,65.8Z" fill="#e4761b" stroke="#e4761b" stroke-linecap="round" stroke-linejoin="round" stroke-width="1"/><path d="M238.3,206.8l-26.5,40.6L268.5,263l16.3-55.3Z" fill="#e4761b" stroke="#e4761b" stroke-linecap="round" stroke-linejoin="round" stroke-width="1"/><path d="M33.9,207.7,50.1,263l56.7-15.6L80.3,206.8Z" fill="#e4761b" stroke="#e4761b" stroke-linecap="round" stroke-linejoin="round" stroke-width="1"/><path d="M103.6,138.2,87.8,162.1l56.3,2.5-2-60.5Z" fill="#e4761b" stroke="#e4761b" stroke-linecap="round" stroke-linejoin="round" stroke-width="1"/><path d="M214.9,138.2l-39-34.8-1.3,61.2,56.2-2.5Z" fill="#e4761b" stroke="#e4761b" stroke-linecap="round" stroke-linejoin="round" stroke-width="1"/><path d="M106.8,247.4l33.8-16.5-29.2-22.8Z" fill="#e4761b" stroke="#e4761b" stroke-linecap="round" stroke-linejoin="round" stroke-width="1"/><path d="M177.9,230.9l33.9,16.5-4.7-39.3Z" fill="#e4761b" stroke="#e4761b" stroke-linecap="round" stroke-linejoin="round" stroke-width="1"/><path d="M211.8,247.4l-33.9-16.5,2.7,22.1-.3,9.3Z" fill="#d7c1b3" stroke="#d7c1b3" stroke-linecap="round" stroke-linejoin="round" stroke-width="1"/><path d="M106.8,247.4l31.5,14.9-.2-9.3,2.5-22.1Z" fill="#d7c1b3" stroke="#d7c1b3" stroke-linecap="round" stroke-linejoin="round" stroke-width="1"/><path d="M138.8,193.5l-28.2-8.3,19.9-9.1Z" fill="#233447" stroke="#233447" stroke-linecap="round" stroke-linejoin="round" stroke-width="1"/><path d="M179.7,193.5l8.3-17.4,20,9.1Z" fill="#233447" stroke="#233447" stroke-linecap="round" stroke-linejoin="round" stroke-width="1"/><path d="M106.8,247.4l4.8-40.6-31.3.9Z" fill="#cd6116" stroke="#cd6116" stroke-linecap="round" stroke-linejoin="round" stroke-width="1"/><path d="M207,206.8l4.8,40.6,26.5-39.7Z" fill="#cd6116" stroke="#cd6116" stroke-linecap="round" stroke-linejoin="round" stroke-width="1"/><path d="M230.8,162.1l-56.2,2.5,5.2,28.9,8.3-17.4,20,9.1Z" fill="#cd6116" stroke="#cd6116" stroke-linecap="round" stroke-linejoin="round" stroke-width="1"/><path d="M110.6,185.2l20-9.1,8.2,17.4,5.3-28.9-56.3-2.5Z" fill="#cd6116" stroke="#cd6116" stroke-linecap="round" stroke-linejoin="round" stroke-width="1"/><path d="M87.8,162.1l23.6,46-.8-22.9Z" fill="#e4751f" stroke="#e4751f" stroke-linecap="round" stroke-linejoin="round" stroke-width="1"/><path d="M208.1,185.2l-1,22.9,23.7-46Z" fill="#e4751f" stroke="#e4751f" stroke-linecap="round" stroke-linejoin="round" stroke-width="1"/><path d="M144.1,164.6l-5.3,28.9,6.6,34.1,1.5-44.9Z" fill="#e4751f" stroke="#e4751f" stroke-linecap="round" stroke-linejoin="round" stroke-width="1"/><path d="M174.6,164.6l-2.7,18,1.2,45,6.7-34.1Z" fill="#e4751f" stroke="#e4751f" stroke-linecap="round" stroke-linejoin="round" stroke-width="1"/><path d="M179.8,193.5l-6.7,34.1,4.8,3.3,29.2-22.8,1-22.9Z" fill="#f6851b" stroke="#f6851b" stroke-linecap="round" stroke-linejoin="round" stroke-width="1"/><path d="M110.6,185.2l.8,22.9,29.2,22.8,4.8-3.3-6.6-34.1Z" fill="#f6851b" stroke="#f6851b" stroke-linecap="round" stroke-linejoin="round" stroke-width="1"/><path d="M180.3,262.3l.3-9.3-2.5-2.2H140.4l-2.3,2.2.2,9.3-31.5-14.9,11,9,22.3,15.5h38.3l22.4-15.5,11-9Z" fill="#c0ad9e" stroke="#c0ad9e" stroke-linecap="round" stroke-linejoin="round" stroke-width="1"/><path d="M177.9,230.9l-4.8-3.3H145.4l-4.8,3.3L138.1,253l2.3-2.2h37.7l2.5,2.2Z" fill="#161616" stroke="#161616" stroke-linecap="round" stroke-linejoin="round" stroke-width="1"/><path d="M278.3,114.2l8.5-40.8L274.1,35.5l-96.2,71.4,37,31.3,52.3,15.3L278.8,140l-5-3.6,8-7.3-6.2-4.8,8-6.1Z" fill="#763d16" stroke="#763d16" stroke-linecap="round" stroke-linejoin="round" stroke-width="1"/><path d="M31.8,73.4l8.5,40.8-5.4,4,8,6.1-6.1,4.8,8,7.3-5,3.6,11.5,13.5,52.3-15.3,37-31.3L44.4,35.5Z" fill="#763d16" stroke="#763d16" stroke-linecap="round" stroke-linejoin="round" stroke-width="1"/><path d="M267.2,153.5l-52.3-15.3,15.9,23.9-23.7,46,31.2-.4h46.5Z" fill="#f6851b" stroke="#f6851b" stroke-linecap="round" stroke-linejoin="round" stroke-width="1"/><path d="M103.6,138.2,51.3,153.5,33.9,207.7H80.3l31.1.4-23.6-46Z" fill="#f6851b" stroke="#f6851b" stroke-linecap="round" stroke-linejoin="round" stroke-width="1"/><path d="M174.6,164.6l3.3-57.7,15.2-41.1H125.6l15,41.1,3.5,57.7,1.2,18.2.1,44.8h27.7l.2-44.8Z" fill="#f6851b" stroke="#f6851b" stroke-linecap="round" stroke-linejoin="round" stroke-width="1"/></g></svg>