<svg xmlns="http://www.w3.org/2000/svg" width="70.807" height="48.985" viewBox="0 0 70.807 48.985"><path d="M287.891,608.536l-14.526-.266c-4.7-.093-9.418.092-14.029-.867-7.014-1.433-7.511-8.459-8.031-14.352a100.679,100.679,0,0,1,.913-24.937c.763-4.61,3.767-7.361,8.412-7.66A464.828,464.828,0,0,1,307.744,560a33.987,33.987,0,0,1,4.946.589c8.043,1.41,8.239,9.372,8.761,16.074a91.12,91.12,0,0,1-.693,20.3c-.8,5.568-2.323,10.238-8.761,10.689-8.066.589-15.947,1.064-24.036.913C287.961,608.536,287.914,608.536,287.891,608.536Zm-8.54-14.1c6.078-3.49,12.041-6.922,18.085-10.388-6.09-3.49-12.041-6.922-18.085-10.389Z" transform="translate(-250.918 -559.608)" fill="red"/></svg>