<svg xmlns="http://www.w3.org/2000/svg" width="160" height="115" viewBox="0 0 160 115"><g transform="translate(-318 -225)"><g transform="translate(318 224.856)"><rect width="115" height="115" transform="translate(0 0.144)" fill="#383c3a" opacity="0"/><path d="M83.56,22.191H69.167v-7.2A11.994,11.994,0,0,0,57.173,3H42.78A11.994,11.994,0,0,0,30.786,14.994v7.2H16.393A14.393,14.393,0,0,0,2,36.584V74.965A14.393,14.393,0,0,0,16.393,89.358H83.56A14.393,14.393,0,0,0,97.953,74.965V36.584A14.393,14.393,0,0,0,83.56,22.191Zm-43.179-7.2a2.4,2.4,0,0,1,2.4-2.4H57.173a2.4,2.4,0,0,1,2.4,2.4v7.2H40.381ZM88.358,74.965a4.8,4.8,0,0,1-4.8,4.8H16.393a4.8,4.8,0,0,1-4.8-4.8V36.584a4.8,4.8,0,0,1,4.8-4.8H83.56a4.8,4.8,0,0,1,4.8,4.8Z" transform="translate(7.595 11.393)" fill="#383c3a"/><path d="M25.292,10.5A16.792,16.792,0,1,0,42.084,27.292,16.792,16.792,0,0,0,25.292,10.5Zm0,23.988a7.2,7.2,0,1,1,7.2-7.2,7.2,7.2,0,0,1-7.2,7.2Z" transform="translate(32.28 39.875)" fill="#383c3a"/></g><text transform="translate(433 306)" fill="#383c3a" font-size="74" font-family="CircularStd-Black, Circular Std Black" font-weight="800"><tspan x="0" y="0">+</tspan></text></g></svg>