<svg xmlns="http://www.w3.org/2000/svg" width="58" height="51.557" viewBox="0 0 58 51.557"><g transform="translate(-37.501 -91)"><path d="M39.394,0A11.6,11.6,0,0,1,49.34,5.631l8.507,14.178a11.6,11.6,0,0,1,0,11.937L49.34,45.924a11.6,11.6,0,0,1-9.946,5.633H21.607a11.6,11.6,0,0,1-9.946-5.631L3.154,31.747a11.6,11.6,0,0,1,0-11.937L11.66,5.633A11.6,11.6,0,0,1,21.607,0Z" transform="translate(36 91)" fill="#fff"/><path d="M37.032,0a10.877,10.877,0,0,1,9.327,5.28l7.977,13.295a10.877,10.877,0,0,1,0,11.193L46.359,43.062a10.877,10.877,0,0,1-9.327,5.282H20.354a10.877,10.877,0,0,1-9.327-5.28L3.051,29.769a10.877,10.877,0,0,1,0-11.193L11.027,5.282A10.877,10.877,0,0,1,20.354,0Z" transform="translate(38 93.001)" fill="#1ca1f3"/><path d="M10.976,0V-11.344H8.768v7.5l-4.72-7.5H1.3V0H3.5V-8.048L8.656,0Zm4.816,0V-4.416h4.4V-6.448H15.776v-2.8h4.96v-2.1H13.568V0Zm15.7-9.248v-2.1H22.1v2.1h3.58V0H27.9V-9.248Z" transform="translate(50.5 122)" fill="#fff"/></g></svg>