<svg xmlns="http://www.w3.org/2000/svg" width="589" height="589" viewBox="0 0 589 589"><g transform="translate(-126.444 -2.281)"><circle cx="294.5" cy="294.5" r="294.5" transform="translate(126.444 2.281)" fill="#2daae1"/><path d="M609.773,179.634a154.684,154.684,0,0,1-44.5,12.2,77.7,77.7,0,0,0,34.066-42.86,154.78,154.78,0,0,1-49.209,18.8A77.507,77.507,0,0,0,416.119,220.8a78.362,78.362,0,0,0,2,17.66,219.979,219.979,0,0,1-159.684-80.945A77.551,77.551,0,0,0,282.4,260.941a77.122,77.122,0,0,1-35.1-9.686v.979a77.509,77.509,0,0,0,62.145,75.961,77.075,77.075,0,0,1-20.413,2.716,78.63,78.63,0,0,1-14.584-1.364,77.57,77.57,0,0,0,72.363,53.8,156,156,0,0,1-114.7,32.071,219.25,219.25,0,0,0,118.759,34.824c142.5,0,220.428-118.052,220.428-220.428q0-5.042-.236-10.021a157.855,157.855,0,0,0,38.707-40.158Z" fill="#fff"/></g></svg>