<svg xmlns="http://www.w3.org/2000/svg" width="160" height="152" viewBox="0 0 160 152"><g transform="translate(-113 -730)"><g transform="translate(113 730)" fill="#f5f7f5" stroke="#f5f7f5" stroke-width="7"><rect width="160" height="152" rx="16" stroke="none"/><rect x="3.5" y="3.5" width="153" height="145" rx="12.5" fill="none"/></g><path d="M73.947,3H17.189A14.189,14.189,0,0,0,3,17.189V73.947a14.189,14.189,0,0,0,14.19,14.19H73.947a14.189,14.189,0,0,0,14.19-14.191V17.189A14.189,14.189,0,0,0,73.947,3ZM17.189,12.46H73.947a4.73,4.73,0,0,1,4.73,4.73V56.731L63.542,43.818a13.1,13.1,0,0,0-16.649,0L12.46,72.528V17.189a4.73,4.73,0,0,1,4.728-4.729ZM73.947,78.677H19.838L52.947,51.055a3.689,3.689,0,0,1,4.4,0l21.33,18.162v4.73A4.73,4.73,0,0,1,73.947,78.677Z" transform="translate(147 760)"/></g></svg>