<svg xmlns="http://www.w3.org/2000/svg" width="31" height="31" viewBox="0 0 31 31"><g transform="translate(-216 -264)"><g transform="translate(216 263.856)"><g transform="translate(0 0.144)"><rect width="31" height="31" fill="#383c3a" opacity="0"/><path d="M23.876,8.147h-3.86V6.217A3.217,3.217,0,0,0,16.8,3H12.938A3.217,3.217,0,0,0,9.721,6.217v1.93H5.861A3.861,3.861,0,0,0,2,12.008V22.3a3.861,3.861,0,0,0,3.861,3.861H23.876A3.861,3.861,0,0,0,27.737,22.3V12.008a3.861,3.861,0,0,0-3.861-3.861ZM12.3,6.217a.643.643,0,0,1,.643-.643H16.8a.643.643,0,0,1,.643.643v1.93H12.3ZM25.163,22.3a1.287,1.287,0,0,1-1.287,1.287H5.861A1.287,1.287,0,0,1,4.574,22.3V12.008a1.287,1.287,0,0,1,1.287-1.287H23.876a1.287,1.287,0,0,1,1.287,1.287Z" transform="translate(0.574 0.822)" fill="#383c3a"/><path d="M13,10.5A4.5,4.5,0,1,0,17.5,15,4.5,4.5,0,0,0,13,10.5Zm0,6.434a1.93,1.93,0,1,1,1.369-.565A1.93,1.93,0,0,1,13,16.934Z" transform="translate(2.438 2.973)" fill="#383c3a"/></g></g></g></svg>