<svg xmlns="http://www.w3.org/2000/svg" width="448" height="448" viewBox="0 0 448 448"><path d="M400,32H48A48.012,48.012,0,0,0,0,80V432a48.012,48.012,0,0,0,48,48H400a48.012,48.012,0,0,0,48-48V80A48.012,48.012,0,0,0,400,32ZM368,284a12.035,12.035,0,0,1-12,12H264v92a12.035,12.035,0,0,1-12,12H196a12.035,12.035,0,0,1-12-12V296H92a12.035,12.035,0,0,1-12-12V228a12.035,12.035,0,0,1,12-12h92V124a12.035,12.035,0,0,1,12-12h56a12.035,12.035,0,0,1,12,12v92h92a12.035,12.035,0,0,1,12,12Z" transform="translate(0 -32)"/></svg>