<svg xmlns="http://www.w3.org/2000/svg" xmlns:xlink="http://www.w3.org/1999/xlink" width="492" height="491.9" viewBox="0 0 492 491.9"><defs><radialGradient id="a" cx="0.018" cy="0.908" r="1.446" gradientTransform="matrix(0.998, -0.052, 0.044, 0.849, -0.001, 0.008)" gradientUnits="objectBoundingBox"><stop offset="0" stop-color="#fed576"/><stop offset="0.263" stop-color="#f47133"/><stop offset="0.609" stop-color="#bc3081"/><stop offset="1" stop-color="#4c63d2"/></radialGradient><radialGradient id="b" cx="0.018" cy="0.908" r="1.446" gradientTransform="matrix(0.999, -0.052, 0.044, 0.849, -0.001, 0.008)" xlink:href="#a"/></defs><g transform="translate(-11.2 -10.3)"><path d="M96.1,23.2A120.626,120.626,0,0,0,52.5,51.6,120.273,120.273,0,0,0,24.1,95.1c-6.1,15.6-10.2,33.5-11.4,59.7s-1.5,34.6-1.5,101.4.3,75.2,1.5,101.4,5.4,44.1,11.4,59.7a120.626,120.626,0,0,0,28.4,43.6,120.626,120.626,0,0,0,43.6,28.4c15.6,6.1,33.5,10.2,59.7,11.4s34.6,1.5,101.4,1.5,75.2-.3,101.4-1.5,44.1-5.4,59.7-11.4a125.954,125.954,0,0,0,72-72c6.1-15.6,10.2-33.5,11.4-59.7s1.5-34.6,1.5-101.4-.3-75.2-1.5-101.4-5.4-44.1-11.4-59.7A121.294,121.294,0,0,0,462,51.6a120.626,120.626,0,0,0-43.6-28.4c-15.6-6.1-33.5-10.2-59.7-11.4s-34.6-1.5-101.4-1.5-75.2.3-101.4,1.5C129.6,12.9,111.7,17.1,96.1,23.2ZM356.6,56c24,1.1,37,5.1,45.7,8.5a76.628,76.628,0,0,1,28.3,18.4A76.629,76.629,0,0,1,449,111.2c3.4,8.7,7.4,21.7,8.5,45.7,1.2,25.9,1.4,33.7,1.4,99.4s-.3,73.5-1.4,99.4c-1.1,24-5.1,37-8.5,45.7a81.385,81.385,0,0,1-46.7,46.7c-8.7,3.4-21.7,7.4-45.7,8.5-25.9,1.2-33.7,1.4-99.4,1.4s-73.5-.3-99.4-1.4c-24-1.1-37-5.1-45.7-8.5a76.629,76.629,0,0,1-28.3-18.4,76.629,76.629,0,0,1-18.4-28.3c-3.4-8.7-7.4-21.7-8.5-45.7-1.2-25.9-1.4-33.7-1.4-99.4s.3-73.5,1.4-99.4c1.1-24,5.1-37,8.5-45.7A76.629,76.629,0,0,1,83.8,82.9a76.629,76.629,0,0,1,28.3-18.4c8.7-3.4,21.7-7.4,45.7-8.5,25.9-1.2,33.7-1.4,99.4-1.4S330.7,54.8,356.6,56Z" fill="url(#a)"/><path d="M130.9,256.3A126.3,126.3,0,1,0,257.2,130,126.3,126.3,0,0,0,130.9,256.3Zm208.3,0a82,82,0,1,1-82-82A81.984,81.984,0,0,1,339.2,256.3Z" fill="url(#b)"/><circle cx="29.5" cy="29.5" r="29.5" transform="translate(359.1 95.5)" fill="#654c9f"/></g></svg>