<svg xmlns="http://www.w3.org/2000/svg" width="144.847" height="128.756" viewBox="0 0 144.847 128.756"><g transform="translate(-37.501 -91)"><path d="M96.134,0a28.97,28.97,0,0,1,24.84,14.063l21.245,35.408a28.97,28.97,0,0,1,0,29.81l-21.245,35.408a28.97,28.97,0,0,1-24.84,14.067H51.714a28.97,28.97,0,0,1-24.84-14.063L5.629,79.284a28.97,28.97,0,0,1,0-29.81L26.874,14.067A28.97,28.97,0,0,1,51.714,0Z" transform="translate(36 91)"/><path d="M50.817,22.023C34.378,30.987,9.872,51.562,0,71.815H9.46a68.3,68.3,0,0,1,12.4-18.991c26.994,12.055,55.4-8.939,55.4-36.518A42.917,42.917,0,0,0,74.292,1C66.737,11.04,56.115,4.386,39.364,6.231,14.717,8.947,3.435,28.119,11.153,43.377,22.439,32.384,41.807,22.84,50.817,22.023Z" transform="translate(71.297 122.189)" fill="#fff"/></g></svg>