<svg xmlns="http://www.w3.org/2000/svg" width="363" height="158.525" viewBox="0 0 363 158.525"><g transform="translate(-190 -133.475)"><rect width="363" height="42" rx="17" transform="translate(190 250)" fill="#f9fafc"/><g transform="translate(152.5 42.475)"><path d="M81.265,0A24.417,24.417,0,0,1,102.2,11.851L120.109,41.7a24.418,24.418,0,0,1,0,25.126L102.2,96.669a24.418,24.418,0,0,1-20.937,11.856H43.824A24.418,24.418,0,0,1,22.887,96.672L4.98,66.827a24.418,24.418,0,0,1,0-25.126L22.887,11.856A24.418,24.418,0,0,1,43.824,0Z" transform="translate(36 91)"/><path d="M42.832,18.719C28.976,26.276,8.321,43.618,0,60.689H7.974A57.564,57.564,0,0,1,18.422,44.681C41.175,54.842,65.115,37.147,65.115,13.9A36.174,36.174,0,0,0,62.619,1C56.251,9.462,47.3,3.854,33.179,5.409,12.4,7.7,2.895,23.858,9.4,36.718,18.913,27.453,35.238,19.409,42.832,18.719Z" transform="translate(65.987 117.131)" fill="#fff"/><g transform="translate(0 12.978)"><path d="M19.987,33.707A16.124,16.124,0,0,1,6,26.924Q1.161,20.142,1.161,7.184,1.161-5.709,6-12.486a16.124,16.124,0,0,1,13.992-6.783,16.124,16.124,0,0,1,13.992,6.783q4.83,6.786,4.83,19.67T33.979,26.9a16.094,16.094,0,0,1-13.992,6.812Zm0-7.4a7.581,7.581,0,0,0,7.252-4.58A34.628,34.628,0,0,0,29.51,7.187a34.324,34.324,0,0,0-2.27-14.54,7.6,7.6,0,0,0-7.252-4.5,7.6,7.6,0,0,0-7.252,4.542,34.359,34.359,0,0,0-2.271,14.5,34.628,34.628,0,0,0,2.271,14.54,7.58,7.58,0,0,0,7.252,4.58Zm57.79,0a4.138,4.138,0,0,1,1.319,3A4.051,4.051,0,0,1,77.859,32.2a3.956,3.956,0,0,1-2.93,1.283,4.021,4.021,0,0,1-3.15-1.525L61.45,20.521,51.121,31.949a4.112,4.112,0,0,1-7.258-2.635,4.137,4.137,0,0,1,1.319-3l10.7-11.647L45.762,3.673a4.138,4.138,0,0,1-1.319-3,3.891,3.891,0,0,1,1.257-2.9,3.986,3.986,0,0,1,2.857-1.21,4.249,4.249,0,0,1,3.15,1.465l9.743,10.7,9.743-10.7a4.249,4.249,0,0,1,3.15-1.465,3.948,3.948,0,0,1,2.892,1.21A3.948,3.948,0,0,1,78.445.669a4.138,4.138,0,0,1-1.319,3L67.017,14.661ZM102.9,28.726q2.564.22,2.564,2.344a2.108,2.108,0,0,1-.917,1.869,4.289,4.289,0,0,1-2.746.478l-1.97-.149a12.426,12.426,0,0,1-8.644-3.527,13.492,13.492,0,0,1-2.784-9.3V2.05H83.5a2.811,2.811,0,0,1-1.94-.621,2.105,2.105,0,0,1-.7-1.65,2.309,2.309,0,0,1,.7-1.758,2.713,2.713,0,0,1,1.94-.659h4.908V-10.9a2.846,2.846,0,0,1,.814-2.171,3.052,3.052,0,0,1,2.2-.771,2.949,2.949,0,0,1,2.124.771A2.846,2.846,0,0,1,94.36-10.9v8.278h8.14a2.6,2.6,0,0,1,1.867.659,2.309,2.309,0,0,1,.7,1.758,2.1,2.1,0,0,1-.7,1.65,2.7,2.7,0,0,1-1.867.621H94.357v18.68a8.468,8.468,0,0,0,1.65,5.825,7.054,7.054,0,0,0,4.943,2.013ZM128.982-3.36q3.077-.22,3.077,2.491A2.6,2.6,0,0,1,131.4,1a3.5,3.5,0,0,1-2.271.844l-2.2.22a9.879,9.879,0,0,0-7.29,3.481,11.246,11.246,0,0,0-2.382,7.141v17.8a2.822,2.822,0,0,1-.814,2.2,3.036,3.036,0,0,1-2.124.733,3.079,3.079,0,0,1-2.171-.771,2.778,2.778,0,0,1-.841-2.171V-.429a2.713,2.713,0,0,1,.879-2.171,3.115,3.115,0,0,1,2.124-.768,2.757,2.757,0,0,1,1.978.768A2.748,2.748,0,0,1,117.1-.513v4.1a11.124,11.124,0,0,1,4.341-4.908,14.751,14.751,0,0,1,6.484-1.989Zm35.1,28.13a1.8,1.8,0,0,1,1.392.659,2.442,2.442,0,0,1,.586,1.685q0,1.831-2.564,3.37a22.175,22.175,0,0,1-5.567,2.306,22.459,22.459,0,0,1-5.714.771,17.446,17.446,0,0,1-13.077-4.908,18.558,18.558,0,0,1-4.8-13.566,21.271,21.271,0,0,1,2.124-9.713,15.85,15.85,0,0,1,5.969-6.555,16.482,16.482,0,0,1,8.753-2.344,14.165,14.165,0,0,1,11.064,4.558,17.673,17.673,0,0,1,4.1,12.307,3.155,3.155,0,0,1-.586,2.124,2.442,2.442,0,0,1-1.9.659h-23.6q.659,12.6,11.938,12.6a14,14,0,0,0,4.908-.771,31.912,31.912,0,0,0,4.4-2.089,6.967,6.967,0,0,1,2.577-1.085ZM151.26,1.109a9.941,9.941,0,0,0-7.507,2.93,13.389,13.389,0,0,0-3.334,8.278H161.15A12.689,12.689,0,0,0,158.436,4a9.092,9.092,0,0,0-7.176-2.9ZM202.685,24.77a1.8,1.8,0,0,1,1.392.659,2.442,2.442,0,0,1,.586,1.685q0,1.831-2.564,3.37a22.175,22.175,0,0,1-5.567,2.293,22.46,22.46,0,0,1-5.714.771,17.445,17.445,0,0,1-13.075-4.884,18.558,18.558,0,0,1-4.8-13.566,21.271,21.271,0,0,1,2.124-9.708,15.85,15.85,0,0,1,5.969-6.555,16.482,16.482,0,0,1,8.755-2.344,14.165,14.165,0,0,1,11.061,4.542,17.673,17.673,0,0,1,4.1,12.307,3.155,3.155,0,0,1-.586,2.124,2.442,2.442,0,0,1-1.9.659h-23.6q.659,12.6,11.938,12.6a14,14,0,0,0,4.908-.771,31.911,31.911,0,0,0,4.4-2.089,6.967,6.967,0,0,1,2.567-1.085ZM189.865,1.109a9.941,9.941,0,0,0-7.51,2.93,13.389,13.389,0,0,0-3.334,8.278h20.731A12.689,12.689,0,0,0,197.038,4a9.092,9.092,0,0,0-7.174-2.9Z" transform="translate(177.229 124.444)"/><rect width="37.984" height="8.139" transform="translate(180.102 142.049) rotate(-38)"/></g></g><path d="M-145.72-9.24a1.106,1.106,0,0,1,.41-.54,1.042,1.042,0,0,1,.59-.18,1.259,1.259,0,0,1,.83.31.965.965,0,0,1,.37.77,1.015,1.015,0,0,1-.1.46l-3.3,7.74a1.2,1.2,0,0,1-.49.58,1.381,1.381,0,0,1-.73.2,1.346,1.346,0,0,1-.71-.2,1.2,1.2,0,0,1-.49-.58l-2.38-5.72-2.3,5.72a1.2,1.2,0,0,1-.49.58,1.381,1.381,0,0,1-.73.2,1.4,1.4,0,0,1-.72-.2,1.187,1.187,0,0,1-.5-.58l-3.28-7.74a1.27,1.27,0,0,1-.1-.44.994.994,0,0,1,.4-.79,1.352,1.352,0,0,1,.88-.33,1.123,1.123,0,0,1,.62.18,1.085,1.085,0,0,1,.42.54l2.36,6.1,2.42-6.04a1.2,1.2,0,0,1,.46-.57,1.209,1.209,0,0,1,.66-.19,1.209,1.209,0,0,1,.66.19,1.2,1.2,0,0,1,.46.57l2.44,6.06Zm19,0a1.106,1.106,0,0,1,.41-.54,1.042,1.042,0,0,1,.59-.18,1.259,1.259,0,0,1,.83.31.965.965,0,0,1,.37.77,1.015,1.015,0,0,1-.1.46l-3.3,7.74a1.2,1.2,0,0,1-.49.58,1.381,1.381,0,0,1-.73.2,1.346,1.346,0,0,1-.71-.2,1.2,1.2,0,0,1-.49-.58l-2.38-5.72-2.3,5.72a1.2,1.2,0,0,1-.49.58,1.381,1.381,0,0,1-.73.2,1.4,1.4,0,0,1-.72-.2,1.187,1.187,0,0,1-.5-.58l-3.28-7.74a1.27,1.27,0,0,1-.1-.44.994.994,0,0,1,.4-.79,1.352,1.352,0,0,1,.88-.33,1.123,1.123,0,0,1,.62.18,1.085,1.085,0,0,1,.42.54l2.36,6.1,2.42-6.04a1.2,1.2,0,0,1,.46-.57,1.209,1.209,0,0,1,.66-.19,1.209,1.209,0,0,1,.66.19,1.2,1.2,0,0,1,.46.57l2.44,6.06Zm19,0a1.106,1.106,0,0,1,.41-.54,1.042,1.042,0,0,1,.59-.18,1.259,1.259,0,0,1,.83.31.965.965,0,0,1,.37.77,1.015,1.015,0,0,1-.1.46l-3.3,7.74a1.2,1.2,0,0,1-.49.58,1.381,1.381,0,0,1-.73.2,1.346,1.346,0,0,1-.71-.2,1.2,1.2,0,0,1-.49-.58l-2.38-5.72-2.3,5.72a1.2,1.2,0,0,1-.49.58,1.381,1.381,0,0,1-.73.2,1.4,1.4,0,0,1-.72-.2,1.187,1.187,0,0,1-.5-.58l-3.28-7.74a1.27,1.27,0,0,1-.1-.44.994.994,0,0,1,.4-.79,1.352,1.352,0,0,1,.88-.33,1.123,1.123,0,0,1,.62.18,1.085,1.085,0,0,1,.42.54l2.36,6.1,2.42-6.04a1.2,1.2,0,0,1,.46-.57,1.209,1.209,0,0,1,.66-.19,1.209,1.209,0,0,1,.66.19,1.2,1.2,0,0,1,.46.57l2.44,6.06Zm6.2,9.36a1.419,1.419,0,0,1-1.06-.43A1.471,1.471,0,0,1-103-1.38a1.471,1.471,0,0,1,.42-1.07,1.419,1.419,0,0,1,1.06-.43,1.419,1.419,0,0,1,1.06.43,1.471,1.471,0,0,1,.42,1.07,1.471,1.471,0,0,1-.42,1.07,1.419,1.419,0,0,1-1.06.43Zm10.36.06a4.4,4.4,0,0,1-3.82-1.85A9.228,9.228,0,0,1-96.3-7.06a9.187,9.187,0,0,1,1.32-5.37,4.4,4.4,0,0,1,3.82-1.85,4.4,4.4,0,0,1,3.82,1.85,9.187,9.187,0,0,1,1.32,5.37,9.236,9.236,0,0,1-1.32,5.38A4.394,4.394,0,0,1-91.16.18Zm0-2.02a2.069,2.069,0,0,0,1.98-1.25,9.454,9.454,0,0,0,.62-3.97,9.371,9.371,0,0,0-.62-3.97,2.072,2.072,0,0,0-1.98-1.23,2.071,2.071,0,0,0-1.98,1.24,9.381,9.381,0,0,0-.62,3.96,9.454,9.454,0,0,0,.62,3.97,2.069,2.069,0,0,0,1.98,1.25Zm17.66,0a1.13,1.13,0,0,1,.36.82,1.106,1.106,0,0,1-.34.79,1.08,1.08,0,0,1-.8.35,1.1,1.1,0,0,1-.86-.42l-2.82-3.12L-80.78-.3a1.16,1.16,0,0,1-.86.4,1.073,1.073,0,0,1-.78-.34,1.073,1.073,0,0,1-.34-.78,1.13,1.13,0,0,1,.36-.82l2.92-3.18-2.76-3a1.13,1.13,0,0,1-.36-.82,1.062,1.062,0,0,1,.34-.79,1.088,1.088,0,0,1,.78-.33,1.16,1.16,0,0,1,.86.4l2.66,2.92,2.66-2.92a1.16,1.16,0,0,1,.86-.4,1.078,1.078,0,0,1,.79.33,1.078,1.078,0,0,1,.33.79,1.13,1.13,0,0,1-.36.82l-2.76,3Zm9.12.1q1,.06,1,.9a.814.814,0,0,1-.39.73A1.861,1.861,0,0,1-64.88.1l-.54-.04A3.217,3.217,0,0,1-67.938-.958,3.217,3.217,0,0,1-68.78-3.54V-7.9h-1a1.27,1.27,0,0,1-.83-.24.856.856,0,0,1-.29-.7.856.856,0,0,1,.29-.7,1.27,1.27,0,0,1,.83-.24h1v-1.84a1.125,1.125,0,0,1,.34-.86,1.288,1.288,0,0,1,.92-.32,1.26,1.26,0,0,1,.9.32,1.125,1.125,0,0,1,.34.86v1.84h1.7a1.27,1.27,0,0,1,.83.24.857.857,0,0,1,.29.7.857.857,0,0,1-.29.7,1.27,1.27,0,0,1-.83.24h-1.7v4.54q0,1.48,1.36,1.58Zm9.64-8.24a1.077,1.077,0,0,1,.82.22.976.976,0,0,1,.3.78,1.09,1.09,0,0,1-.26.8,1.6,1.6,0,0,1-.94.34l-.6.06a2.43,2.43,0,0,0-1.73.8,2.616,2.616,0,0,0-.55,1.7v4.2a1.11,1.11,0,0,1-.36.89,1.33,1.33,0,0,1-.9.31,1.293,1.293,0,0,1-.89-.31,1.126,1.126,0,0,1-.35-.89V-8.82a1.071,1.071,0,0,1,.35-.86,1.29,1.29,0,0,1,.87-.3,1.2,1.2,0,0,1,.84.29,1.063,1.063,0,0,1,.32.83v.8a2.96,2.96,0,0,1,1.13-1.36,3.464,3.464,0,0,1,1.67-.54Zm4.8,10.1A1.419,1.419,0,0,1-51-.31a1.471,1.471,0,0,1-.42-1.07A1.471,1.471,0,0,1-51-2.45a1.419,1.419,0,0,1,1.06-.43,1.419,1.419,0,0,1,1.06.43,1.471,1.471,0,0,1,.42,1.07,1.471,1.471,0,0,1-.42,1.07,1.419,1.419,0,0,1-1.06.43Zm13.14-2.8a.673.673,0,0,1,.55.26,1.082,1.082,0,0,1,.21.7,1.213,1.213,0,0,1-.74,1.04,6.686,6.686,0,0,1-1.54.61,6.349,6.349,0,0,1-1.64.23A5.1,5.1,0,0,1-43.7-1.2a4.985,4.985,0,0,1-1.38-3.72,5.707,5.707,0,0,1,.6-2.66,4.363,4.363,0,0,1,1.69-1.8,4.786,4.786,0,0,1,2.47-.64,4.432,4.432,0,0,1,2.3.58A3.933,3.933,0,0,1-36.5-7.8a5.442,5.442,0,0,1,.54,2.5q0,.86-.76.86h-5.9a3.147,3.147,0,0,0,.78,2.03,2.625,2.625,0,0,0,1.92.65,3.641,3.641,0,0,0,1.13-.16,11.154,11.154,0,0,0,1.11-.44,2.207,2.207,0,0,1,.88-.32Zm-3.46-5.58a2.146,2.146,0,0,0-1.63.64,3.022,3.022,0,0,0-.73,1.84h4.52a2.852,2.852,0,0,0-.6-1.85,1.979,1.979,0,0,0-1.56-.63ZM-24.3-2.68a.673.673,0,0,1,.55.26,1.082,1.082,0,0,1,.21.7,1.213,1.213,0,0,1-.74,1.04,6.686,6.686,0,0,1-1.54.61,6.349,6.349,0,0,1-1.64.23A5.1,5.1,0,0,1-31.2-1.2a4.985,4.985,0,0,1-1.38-3.72,5.707,5.707,0,0,1,.6-2.66,4.363,4.363,0,0,1,1.69-1.8,4.786,4.786,0,0,1,2.47-.64,4.432,4.432,0,0,1,2.3.58A3.933,3.933,0,0,1-24-7.8a5.442,5.442,0,0,1,.54,2.5q0,.86-.76.86h-5.9a3.147,3.147,0,0,0,.78,2.03,2.625,2.625,0,0,0,1.92.65,3.641,3.641,0,0,0,1.13-.16,11.154,11.154,0,0,0,1.11-.44,2.207,2.207,0,0,1,.88-.32Zm-3.46-5.58a2.146,2.146,0,0,0-1.63.64,3.022,3.022,0,0,0-.73,1.84h4.52a2.852,2.852,0,0,0-.6-1.85A1.979,1.979,0,0,0-27.76-8.26ZM-18.8.68a1.028,1.028,0,0,1-.38.56,1,1,0,0,1-.58.18,1.05,1.05,0,0,1-.71-.27.874.874,0,0,1-.31-.69A1.133,1.133,0,0,1-20.72.1l4.64-14.54A1.028,1.028,0,0,1-15.7-15a1,1,0,0,1,.58-.18,1.05,1.05,0,0,1,.71.27.874.874,0,0,1,.31.69,1.133,1.133,0,0,1-.06.36ZM-6.98,1.72a1.038,1.038,0,0,1,.7.24.871.871,0,0,1,.28.7.871.871,0,0,1-.28.7,1.038,1.038,0,0,1-.7.24h-1.5a2.4,2.4,0,0,1-1.79-.64,2.428,2.428,0,0,1-.63-1.78V-2.7a1.9,1.9,0,0,0-.28-1.16,1.35,1.35,0,0,0-1-.42.981.981,0,0,1-.71-.29.976.976,0,0,1-.25-.69.94.94,0,0,1,.25-.68,1,1,0,0,1,.71-.28,1.35,1.35,0,0,0,1-.42A1.9,1.9,0,0,0-10.9-7.8v-3.88a2.428,2.428,0,0,1,.63-1.78,2.4,2.4,0,0,1,1.79-.64h1.5a1.038,1.038,0,0,1,.7.24.871.871,0,0,1,.28.7.871.871,0,0,1-.28.7,1.038,1.038,0,0,1-.7.24h-.64a.856.856,0,0,0-.63.21.917.917,0,0,0-.21.67V-7.5a2.4,2.4,0,0,1-.47,1.51,1.909,1.909,0,0,1-1.11.75,1.922,1.922,0,0,1,1.11.74A2.358,2.358,0,0,1-8.46-3V.84a.917.917,0,0,0,.21.67.856.856,0,0,0,.63.21ZM10.4-9.24a1.106,1.106,0,0,1,.41-.54,1.042,1.042,0,0,1,.59-.18,1.259,1.259,0,0,1,.83.31.965.965,0,0,1,.37.77,1.015,1.015,0,0,1-.1.46L9.2-.68a1.2,1.2,0,0,1-.49.58,1.381,1.381,0,0,1-.73.2,1.346,1.346,0,0,1-.71-.2,1.2,1.2,0,0,1-.49-.58L4.4-6.4,2.1-.68a1.2,1.2,0,0,1-.49.58A1.381,1.381,0,0,1,.88.1,1.4,1.4,0,0,1,.16-.1a1.187,1.187,0,0,1-.5-.58L-3.62-8.42a1.27,1.27,0,0,1-.1-.44.994.994,0,0,1,.4-.79,1.352,1.352,0,0,1,.88-.33,1.123,1.123,0,0,1,.62.18,1.085,1.085,0,0,1,.42.54L.96-3.16,3.38-9.2a1.2,1.2,0,0,1,.46-.57,1.209,1.209,0,0,1,.66-.19,1.209,1.209,0,0,1,.66.19,1.2,1.2,0,0,1,.46.57L8.06-3.14Zm9.88-.78a4.074,4.074,0,0,1,3.03,1.01,4.228,4.228,0,0,1,.99,3.07v4.88a1.128,1.128,0,0,1-.32.85A1.211,1.211,0,0,1,23.1.1a1.17,1.17,0,0,1-.85-.32,1.117,1.117,0,0,1-.33-.84V-1.5A2.609,2.609,0,0,1,20.85-.28a3.209,3.209,0,0,1-1.69.44,3.924,3.924,0,0,1-1.78-.4,3.166,3.166,0,0,1-1.26-1.1,2.779,2.779,0,0,1-.46-1.56,2.471,2.471,0,0,1,.55-1.7A3.305,3.305,0,0,1,18-5.5a16.3,16.3,0,0,1,3.42-.28h.5v-.46a2.048,2.048,0,0,0-.42-1.43,1.787,1.787,0,0,0-1.36-.45,4.315,4.315,0,0,0-1.18.17q-.6.17-1.42.49a2,2,0,0,1-.76.26.752.752,0,0,1-.59-.26.988.988,0,0,1-.23-.68,1.024,1.024,0,0,1,.17-.59,1.614,1.614,0,0,1,.57-.47,6.519,6.519,0,0,1,1.67-.6,8.617,8.617,0,0,1,1.91-.22Zm-.62,8.38a2.136,2.136,0,0,0,1.63-.67,2.423,2.423,0,0,0,.63-1.73v-.42h-.36a13.8,13.8,0,0,0-2.08.12,2.019,2.019,0,0,0-1.06.42,1.07,1.07,0,0,0-.32.82,1.357,1.357,0,0,0,.45,1.05,1.587,1.587,0,0,0,1.11.41ZM29.96.12a1.293,1.293,0,0,1-.89-.31,1.126,1.126,0,0,1-.35-.89V-13.02a1.1,1.1,0,0,1,.35-.88,1.319,1.319,0,0,1,.89-.3,1.358,1.358,0,0,1,.9.3,1.08,1.08,0,0,1,.36.88V-1.08a1.11,1.11,0,0,1-.36.89,1.33,1.33,0,0,1-.9.31Zm6.96,0a1.293,1.293,0,0,1-.89-.31,1.126,1.126,0,0,1-.35-.89V-13.02a1.1,1.1,0,0,1,.35-.88,1.319,1.319,0,0,1,.89-.3,1.358,1.358,0,0,1,.9.3,1.08,1.08,0,0,1,.36.88V-1.08a1.11,1.11,0,0,1-.36.89,1.33,1.33,0,0,1-.9.31Zm13.46-2.8a.673.673,0,0,1,.55.26,1.082,1.082,0,0,1,.21.7A1.213,1.213,0,0,1,50.4-.68a6.686,6.686,0,0,1-1.54.61,6.349,6.349,0,0,1-1.64.23A5.1,5.1,0,0,1,43.48-1.2,4.985,4.985,0,0,1,42.1-4.92a5.707,5.707,0,0,1,.6-2.66,4.363,4.363,0,0,1,1.69-1.8,4.786,4.786,0,0,1,2.47-.64,4.432,4.432,0,0,1,2.3.58A3.933,3.933,0,0,1,50.68-7.8a5.442,5.442,0,0,1,.54,2.5q0,.86-.76.86h-5.9a3.147,3.147,0,0,0,.78,2.03,2.625,2.625,0,0,0,1.92.65,3.641,3.641,0,0,0,1.13-.16,11.154,11.154,0,0,0,1.11-.44,2.207,2.207,0,0,1,.88-.32ZM46.92-8.26a2.146,2.146,0,0,0-1.63.64,3.022,3.022,0,0,0-.73,1.84h4.52a2.852,2.852,0,0,0-.6-1.85,1.979,1.979,0,0,0-1.56-.63ZM60.08-1.74q1,.06,1,.9a.814.814,0,0,1-.39.73A1.861,1.861,0,0,1,59.58.1L59.04.06A3.217,3.217,0,0,1,56.522-.958,3.217,3.217,0,0,1,55.68-3.54V-7.9h-1a1.27,1.27,0,0,1-.83-.24.857.857,0,0,1-.29-.7.857.857,0,0,1,.29-.7,1.27,1.27,0,0,1,.83-.24h1v-1.84a1.125,1.125,0,0,1,.34-.86,1.288,1.288,0,0,1,.92-.32,1.26,1.26,0,0,1,.9.32,1.125,1.125,0,0,1,.34.86v1.84h1.7a1.27,1.27,0,0,1,.83.24.857.857,0,0,1,.29.7.857.857,0,0,1-.29.7,1.27,1.27,0,0,1-.83.24h-1.7v4.54q0,1.48,1.36,1.58Zm17.18.2a1.232,1.232,0,0,1,.12.52.994.994,0,0,1-.37.78,1.262,1.262,0,0,1-.85.32,1.136,1.136,0,0,1-.6-.17,1.134,1.134,0,0,1-.44-.53L73.92-3.3H66.88L65.68-.62a1.134,1.134,0,0,1-.44.53,1.172,1.172,0,0,1-.62.17,1.274,1.274,0,0,1-.84-.32.984.984,0,0,1-.38-.78,1.232,1.232,0,0,1,.12-.52L69.04-13.4a1.29,1.29,0,0,1,.55-.61,1.575,1.575,0,0,1,.79-.21,1.575,1.575,0,0,1,.79.21,1.29,1.29,0,0,1,.55.61ZM67.76-5.3h5.28L70.4-11.24Zm21.38-8.9a1.333,1.333,0,0,1,.92.32,1.07,1.07,0,0,1,.36.84V-1.08a1.125,1.125,0,0,1-.34.86,1.26,1.26,0,0,1-.9.32,1.26,1.26,0,0,1-.9-.32,1.125,1.125,0,0,1-.34-.86v-.5A3.131,3.131,0,0,1,86.67-.3a3.833,3.833,0,0,1-1.89.46,4.053,4.053,0,0,1-2.25-.64,4.244,4.244,0,0,1-1.54-1.81,6.255,6.255,0,0,1-.55-2.69,6.057,6.057,0,0,1,.55-2.66A4.166,4.166,0,0,1,82.52-9.4a4.136,4.136,0,0,1,2.26-.62,3.914,3.914,0,0,1,1.88.44,3.052,3.052,0,0,1,1.26,1.24v-4.74a1.06,1.06,0,0,1,.33-.81,1.247,1.247,0,0,1,.89-.31ZM85.44-1.78a2.224,2.224,0,0,0,1.85-.82,3.69,3.69,0,0,0,.65-2.34,3.646,3.646,0,0,0-.65-2.33,2.213,2.213,0,0,0-1.83-.81,2.276,2.276,0,0,0-1.86.8,3.529,3.529,0,0,0-.66,2.3,3.737,3.737,0,0,0,.66,2.36,2.208,2.208,0,0,0,1.84.84Zm17.6-12.42a1.333,1.333,0,0,1,.92.32,1.07,1.07,0,0,1,.36.84V-1.08a1.125,1.125,0,0,1-.34.86,1.26,1.26,0,0,1-.9.32,1.26,1.26,0,0,1-.9-.32,1.125,1.125,0,0,1-.34-.86v-.5A3.131,3.131,0,0,1,100.57-.3a3.833,3.833,0,0,1-1.89.46,4.053,4.053,0,0,1-2.25-.64,4.244,4.244,0,0,1-1.54-1.81,6.255,6.255,0,0,1-.55-2.69,6.057,6.057,0,0,1,.55-2.66A4.166,4.166,0,0,1,96.42-9.4a4.136,4.136,0,0,1,2.26-.62,3.914,3.914,0,0,1,1.88.44,3.052,3.052,0,0,1,1.26,1.24v-4.74a1.06,1.06,0,0,1,.33-.81,1.247,1.247,0,0,1,.89-.31ZM99.34-1.78a2.224,2.224,0,0,0,1.85-.82,3.69,3.69,0,0,0,.65-2.34,3.646,3.646,0,0,0-.65-2.33,2.213,2.213,0,0,0-1.83-.81,2.276,2.276,0,0,0-1.86.8,3.529,3.529,0,0,0-.66,2.3,3.737,3.737,0,0,0,.66,2.36A2.208,2.208,0,0,0,99.34-1.78Zm14.9-8.2a1.077,1.077,0,0,1,.82.22.977.977,0,0,1,.3.78,1.09,1.09,0,0,1-.26.8,1.6,1.6,0,0,1-.94.34l-.6.06a2.43,2.43,0,0,0-1.73.8,2.616,2.616,0,0,0-.55,1.7v4.2a1.11,1.11,0,0,1-.36.89,1.33,1.33,0,0,1-.9.31,1.293,1.293,0,0,1-.89-.31,1.126,1.126,0,0,1-.35-.89V-8.82a1.071,1.071,0,0,1,.35-.86,1.29,1.29,0,0,1,.87-.3,1.2,1.2,0,0,1,.84.29,1.063,1.063,0,0,1,.32.83v.8a2.96,2.96,0,0,1,1.13-1.36,3.464,3.464,0,0,1,1.67-.54Zm11.62,7.3a.673.673,0,0,1,.55.26,1.082,1.082,0,0,1,.21.7,1.213,1.213,0,0,1-.74,1.04,6.686,6.686,0,0,1-1.54.61,6.349,6.349,0,0,1-1.64.23,5.1,5.1,0,0,1-3.74-1.36,4.985,4.985,0,0,1-1.38-3.72,5.707,5.707,0,0,1,.6-2.66,4.363,4.363,0,0,1,1.69-1.8,4.786,4.786,0,0,1,2.47-.64,4.432,4.432,0,0,1,2.3.58,3.933,3.933,0,0,1,1.52,1.64,5.442,5.442,0,0,1,.54,2.5q0,.86-.76.86h-5.9a3.147,3.147,0,0,0,.78,2.03,2.625,2.625,0,0,0,1.92.65,3.641,3.641,0,0,0,1.13-.16,11.155,11.155,0,0,0,1.11-.44,2.207,2.207,0,0,1,.88-.32ZM122.4-8.26a2.146,2.146,0,0,0-1.63.64,3.022,3.022,0,0,0-.73,1.84h4.52a2.852,2.852,0,0,0-.6-1.85A1.979,1.979,0,0,0,122.4-8.26ZM134.16.16a6.43,6.43,0,0,1-3.52-.86A1.193,1.193,0,0,1,130-1.78a.948.948,0,0,1,.22-.65.692.692,0,0,1,.54-.25,2.209,2.209,0,0,1,.94.32,8.755,8.755,0,0,0,1.17.46,4.765,4.765,0,0,0,1.35.16,2.567,2.567,0,0,0,1.31-.28A.867.867,0,0,0,136-2.8a.752.752,0,0,0-.19-.54,1.742,1.742,0,0,0-.68-.37,14.3,14.3,0,0,0-1.49-.39,5.725,5.725,0,0,1-2.55-1.02,2.27,2.27,0,0,1-.77-1.82,2.626,2.626,0,0,1,.52-1.59,3.37,3.37,0,0,1,1.43-1.1,5.21,5.21,0,0,1,2.07-.39,6.2,6.2,0,0,1,1.62.21,4.924,4.924,0,0,1,1.4.61A1.207,1.207,0,0,1,138-8.14a1.026,1.026,0,0,1-.22.67.672.672,0,0,1-.54.27,1.082,1.082,0,0,1-.43-.09,5.769,5.769,0,0,1-.53-.27,8.387,8.387,0,0,0-1-.45,3.119,3.119,0,0,0-1.04-.15,2.014,2.014,0,0,0-1.17.3.948.948,0,0,0-.43.82.832.832,0,0,0,.44.76,6.3,6.3,0,0,0,1.7.52,9.7,9.7,0,0,1,2.1.64,2.459,2.459,0,0,1,1.09.9,2.611,2.611,0,0,1,.33,1.38,2.565,2.565,0,0,1-1.13,2.18,5.016,5.016,0,0,1-3.01.82Zm11.58,0a6.43,6.43,0,0,1-3.52-.86,1.193,1.193,0,0,1-.64-1.08.948.948,0,0,1,.22-.65.692.692,0,0,1,.54-.25,2.209,2.209,0,0,1,.94.32,8.755,8.755,0,0,0,1.17.46,4.765,4.765,0,0,0,1.35.16,2.567,2.567,0,0,0,1.31-.28.867.867,0,0,0,.47-.78.752.752,0,0,0-.19-.54,1.742,1.742,0,0,0-.68-.37,14.3,14.3,0,0,0-1.49-.39,5.725,5.725,0,0,1-2.55-1.02,2.27,2.27,0,0,1-.77-1.82,2.626,2.626,0,0,1,.52-1.59,3.37,3.37,0,0,1,1.43-1.1,5.21,5.21,0,0,1,2.07-.39,6.2,6.2,0,0,1,1.62.21,4.924,4.924,0,0,1,1.4.61,1.207,1.207,0,0,1,.64,1.06,1.026,1.026,0,0,1-.22.67.672.672,0,0,1-.54.27,1.082,1.082,0,0,1-.43-.09,5.768,5.768,0,0,1-.53-.27,8.388,8.388,0,0,0-1-.45,3.119,3.119,0,0,0-1.04-.15,2.014,2.014,0,0,0-1.17.3.948.948,0,0,0-.43.82.832.832,0,0,0,.44.76,6.3,6.3,0,0,0,1.7.52,9.7,9.7,0,0,1,2.1.64,2.459,2.459,0,0,1,1.09.9,2.611,2.611,0,0,1,.33,1.38,2.565,2.565,0,0,1-1.13,2.18,5.016,5.016,0,0,1-3.01.82Zm12.92-6.38a1,1,0,0,1,.71.28.94.94,0,0,1,.25.68,1,1,0,0,1-.24.69.971.971,0,0,1-.72.29,1.35,1.35,0,0,0-1,.42,1.9,1.9,0,0,0-.28,1.16V1.18a2.428,2.428,0,0,1-.63,1.78,2.4,2.4,0,0,1-1.79.64h-1.5a1.038,1.038,0,0,1-.7-.24.871.871,0,0,1-.28-.7.871.871,0,0,1,.28-.7,1.038,1.038,0,0,1,.7-.24h.64a.856.856,0,0,0,.63-.21.917.917,0,0,0,.21-.67V-3a2.358,2.358,0,0,1,.47-1.5,1.922,1.922,0,0,1,1.11-.74,1.909,1.909,0,0,1-1.11-.75,2.4,2.4,0,0,1-.47-1.51v-3.84a.917.917,0,0,0-.21-.67.856.856,0,0,0-.63-.21h-.64a1.038,1.038,0,0,1-.7-.24.871.871,0,0,1-.28-.7.871.871,0,0,1,.28-.7,1.038,1.038,0,0,1,.7-.24h1.5a2.4,2.4,0,0,1,1.79.64,2.428,2.428,0,0,1,.63,1.78V-7.8a1.9,1.9,0,0,0,.28,1.16,1.35,1.35,0,0,0,1,.42Z" transform="translate(372 278)" fill="#383c3a"/></g></svg>