<svg xmlns="http://www.w3.org/2000/svg" width="137.629" height="43.329" viewBox="0 0 137.629 43.329"><g transform="translate(-37.501 -91)"><path d="M33.346,0a9.749,9.749,0,0,1,8.359,4.732l7.149,11.915a9.749,9.749,0,0,1,0,10.032L41.706,38.6a9.749,9.749,0,0,1-8.359,4.734H18.4A9.749,9.749,0,0,1,10.039,38.6L2.89,26.681a9.749,9.749,0,0,1,0-10.032L10.039,4.734A9.749,9.749,0,0,1,18.4,0Z" transform="translate(36 91)"/><path d="M17.1,8.074C11.569,11.091,3.322,18.015,0,24.831H3.184A22.982,22.982,0,0,1,7.355,18.44C16.439,22.5,26,15.432,26,6.151A14.442,14.442,0,0,0,25,1c-2.542,3.379-6.117,1.14-11.754,1.76-8.294.914-12.091,7.366-9.493,12.5C7.551,11.561,14.069,8.35,17.1,8.074Z" transform="translate(48.874 100.832)" fill="#fff"/><g transform="translate(93.75 101.832)"><path d="M8.677,1.869A6.438,6.438,0,0,1,3.091-.84q-1.93-2.708-1.93-7.881,0-5.147,1.93-7.853a6.438,6.438,0,0,1,5.586-2.708,6.438,6.438,0,0,1,5.586,2.708q1.93,2.708,1.93,7.853t-1.93,7.87a6.426,6.426,0,0,1-5.586,2.72Zm0-2.954a3.027,3.027,0,0,0,2.9-1.828,13.825,13.825,0,0,0,.907-5.8,13.7,13.7,0,0,0-.907-5.806,3.033,3.033,0,0,0-2.9-1.8,3.033,3.033,0,0,0-2.9,1.813A13.718,13.718,0,0,0,4.87-8.715a13.825,13.825,0,0,0,.907,5.8,3.027,3.027,0,0,0,2.9,1.828Zm23.072,0a1.652,1.652,0,0,1,.526,1.2,1.617,1.617,0,0,1-.494,1.155,1.579,1.579,0,0,1-1.17.512,1.605,1.605,0,0,1-1.258-.609L25.231-3.4,21.107,1.167a1.7,1.7,0,0,1-1.258.585,1.568,1.568,0,0,1-1.141-.5,1.568,1.568,0,0,1-.5-1.141,1.652,1.652,0,0,1,.526-1.2l4.272-4.65-4.04-4.387a1.652,1.652,0,0,1-.526-1.2,1.553,1.553,0,0,1,.5-1.155,1.591,1.591,0,0,1,1.141-.483,1.7,1.7,0,0,1,1.258.585l3.89,4.27,3.89-4.27a1.7,1.7,0,0,1,1.258-.585,1.576,1.576,0,0,1,1.155.483,1.576,1.576,0,0,1,.483,1.155,1.652,1.652,0,0,1-.526,1.2l-4.035,4.39ZM41.782-.12q1.024.088,1.024.936a.842.842,0,0,1-.366.746,1.713,1.713,0,0,1-1.1.191l-.786-.06A4.961,4.961,0,0,1,37.1.285a5.387,5.387,0,0,1-1.111-3.714V-10.77h-1.96a1.122,1.122,0,0,1-.775-.248.841.841,0,0,1-.278-.659.922.922,0,0,1,.278-.7,1.083,1.083,0,0,1,.775-.263h1.96v-3.3a1.136,1.136,0,0,1,.325-.867,1.219,1.219,0,0,1,.877-.308,1.177,1.177,0,0,1,.848.308,1.136,1.136,0,0,1,.325.867v3.3h3.25a1.04,1.04,0,0,1,.745.263.922.922,0,0,1,.278.7.841.841,0,0,1-.278.659,1.077,1.077,0,0,1-.745.248h-3.25v7.458a3.381,3.381,0,0,0,.659,2.326A2.816,2.816,0,0,0,41-.179ZM52.193-12.93q1.228-.088,1.228.994a1.04,1.04,0,0,1-.263.745,1.4,1.4,0,0,1-.907.337l-.877.088a3.944,3.944,0,0,0-2.911,1.39,4.49,4.49,0,0,0-.951,2.851V.582a1.127,1.127,0,0,1-.325.877,1.212,1.212,0,0,1-.848.292,1.229,1.229,0,0,1-.867-.308,1.109,1.109,0,0,1-.336-.867V-11.76a1.083,1.083,0,0,1,.351-.867,1.244,1.244,0,0,1,.848-.307,1.1,1.1,0,0,1,.79.307,1.1,1.1,0,0,1,.325.833v1.638a4.441,4.441,0,0,1,1.733-1.96,5.889,5.889,0,0,1,2.589-.794ZM66.206-1.7a.72.72,0,0,1,.556.263A.975.975,0,0,1,67-.764Q67-.033,65.972.582a8.853,8.853,0,0,1-2.223.921,8.967,8.967,0,0,1-2.281.308A6.965,6.965,0,0,1,56.247-.15a7.409,7.409,0,0,1-1.915-5.416,8.492,8.492,0,0,1,.848-3.878,6.328,6.328,0,0,1,2.383-2.617A6.581,6.581,0,0,1,61.057-13a5.655,5.655,0,0,1,4.417,1.82,7.056,7.056,0,0,1,1.638,4.913,1.26,1.26,0,0,1-.234.848.975.975,0,0,1-.758.263H56.7q.263,5.03,4.766,5.03a5.588,5.588,0,0,0,1.96-.308,12.741,12.741,0,0,0,1.755-.834A2.782,2.782,0,0,1,66.206-1.7Zm-5.118-9.447a3.969,3.969,0,0,0-3,1.17,5.346,5.346,0,0,0-1.331,3.3h8.277A5.066,5.066,0,0,0,63.951-10a3.63,3.63,0,0,0-2.865-1.156ZM81.619-1.7a.72.72,0,0,1,.556.263.975.975,0,0,1,.234.673q0,.731-1.024,1.345a8.853,8.853,0,0,1-2.223.915,8.967,8.967,0,0,1-2.281.308,6.965,6.965,0,0,1-5.22-1.95,7.409,7.409,0,0,1-1.916-5.416,8.492,8.492,0,0,1,.848-3.876,6.328,6.328,0,0,1,2.383-2.617,6.581,6.581,0,0,1,3.5-.936,5.655,5.655,0,0,1,4.416,1.813A7.056,7.056,0,0,1,82.53-6.265a1.26,1.26,0,0,1-.234.848.975.975,0,0,1-.758.263H72.109q.263,5.03,4.766,5.03a5.588,5.588,0,0,0,1.96-.308,12.74,12.74,0,0,0,1.755-.834A2.782,2.782,0,0,1,81.615-1.7ZM76.5-11.146a3.969,3.969,0,0,0-3,1.17,5.346,5.346,0,0,0-1.331,3.3h8.277A5.066,5.066,0,0,0,79.363-10,3.63,3.63,0,0,0,76.5-11.146Z" transform="translate(-1.161 19.291)"/><rect width="15.165" height="3.25" transform="translate(0.684 14.73) rotate(-38)"/></g></g></svg>